<svg width="360" height="121" viewBox="0 0 360 121" fill="none" xmlns="http://www.w3.org/2000/svg">
<path d="M180.817 12.9921H178.825C176.945 12.9921 175.47 14.2165 175.47 15.7795V28.0264C175.47 28.5298 175.879 28.9387 176.383 28.9387H183.257C183.76 28.9387 184.169 28.5298 184.169 28.0264V15.7795C184.169 14.2165 182.696 12.9921 180.817 12.9921Z" fill="#4D4D4D"/>
<path d="M183.259 29.7634H176.385C175.426 29.7634 174.648 28.9852 174.648 28.0267V15.7798C174.648 13.7552 176.484 12.168 178.825 12.168H180.817C183.158 12.168 184.993 13.7552 184.993 15.7798V28.0289C184.996 28.9852 184.215 29.7634 183.259 29.7634ZM178.825 13.8167C177.405 13.8167 176.297 14.6785 176.297 15.7798V28.0267L183.259 28.1146L183.347 15.7798C183.347 14.6807 182.237 13.8167 180.819 13.8167H178.825Z" fill="#121212"/>
<path d="M184.783 22.1721C184.39 22.1721 184.01 21.961 183.814 21.5895C183.528 21.0531 183.733 20.3892 184.267 20.1034C187.241 18.5207 189.086 15.4914 189.086 12.2027C189.086 7.23885 184.929 3.19833 179.82 3.19833C174.711 3.19833 170.554 7.23665 170.554 12.2027C170.554 15.3946 172.319 18.3778 175.161 19.9869C175.689 20.2859 175.876 20.9564 175.577 21.484C175.273 22.0138 174.599 22.1941 174.078 21.8995C170.547 19.9012 168.353 16.186 168.353 12.2027C168.353 6.02537 173.497 1 179.817 1C186.138 1 191.282 6.02537 191.282 12.2027C191.282 16.3069 188.989 20.0793 185.298 22.0446C185.135 22.1281 184.959 22.1721 184.783 22.1721Z" fill="#121212"/>
<path d="M179.71 27.1232C154.251 27.1232 133.541 47.8336 133.541 73.2924C133.541 98.7512 154.253 119.462 179.71 119.462C205.166 119.462 225.877 98.749 225.877 73.2924C225.877 47.8358 205.166 27.1232 179.71 27.1232Z" fill="#4D4D4D"/>
<path d="M179.71 121C153.403 121 132 99.5973 132 73.2922C132 46.987 153.403 25.5841 179.71 25.5841C206.015 25.5841 227.416 46.9848 227.416 73.2922C227.416 99.5995 206.015 121 179.71 121ZM179.71 28.664C155.1 28.664 135.077 48.6841 135.077 73.2922C135.077 97.9002 155.097 117.923 179.71 117.923C204.318 117.923 224.338 97.9024 224.338 73.2922C224.338 48.6819 204.32 28.664 179.71 28.664Z" fill="#121212"/>
<path d="M217.874 70.3768C218.571 78.4358 216.742 86.7565 212.103 94.0747C200.815 111.886 177.159 117.019 159.269 105.539C141.379 94.0593 136.026 70.3174 147.314 52.5066C158.603 34.6957 182.259 29.5626 200.149 41.0423C206.508 45.1224 211.283 50.7523 214.291 57.1143" fill="#FDFCEE"/>
<path d="M179.992 112.496C172.562 112.496 165.259 110.364 158.823 106.233C140.579 94.5295 135.103 70.2292 146.615 52.0666C152.162 43.3151 160.797 37.2609 170.927 35.0208C181.169 32.7587 191.705 34.6493 200.593 40.3496C206.867 44.3769 211.862 50.053 215.034 56.7645C215.229 57.1755 215.054 57.668 214.64 57.8614C214.227 58.0549 213.737 57.8812 213.543 57.4679C210.501 51.0356 205.715 45.597 199.703 41.7367C191.186 36.2761 181.089 34.4602 171.281 36.63C161.582 38.7756 153.316 44.5703 148.005 52.9482C136.976 70.3479 142.227 93.6282 159.709 104.846C168.225 110.309 178.32 112.123 188.128 109.953C197.825 107.807 206.093 102.013 211.404 93.6348C215.81 86.6859 217.762 78.6686 217.047 70.449C217.008 69.9962 217.346 69.5961 217.799 69.5565C218.241 69.5059 218.652 69.8533 218.692 70.3061C219.435 78.8884 217.395 87.2596 212.794 94.5163C207.247 103.268 198.612 109.322 188.482 111.562C185.664 112.186 182.817 112.496 179.992 112.496Z" fill="#121212"/>
<path d="M216.527 64.1501C216.747 65.0515 216.936 65.9616 217.09 66.8761Z" fill="#FDFCEE"/>
<path d="M217.09 67.7008C216.694 67.7008 216.344 67.4172 216.276 67.0149C216.127 66.1202 215.942 65.2299 215.724 64.3483C215.617 63.9065 215.887 63.4602 216.329 63.3503C216.762 63.2404 217.215 63.513 217.325 63.9548C217.551 64.8759 217.743 65.8058 217.903 66.7401C217.978 67.1886 217.674 67.615 217.226 67.6898C217.18 67.6964 217.136 67.7008 217.09 67.7008Z" fill="#121212"/>
<path d="M179.992 39.5551C179.688 39.5551 179.442 39.3088 179.442 39.0055V35.3035C179.442 35.0001 179.688 34.7539 179.992 34.7539C180.295 34.7539 180.541 35.0001 180.541 35.3035V39.0055C180.541 39.3088 180.295 39.5551 179.992 39.5551ZM179.992 110.939C179.688 110.939 179.442 110.693 179.442 110.39V106.688C179.442 106.384 179.688 106.138 179.992 106.138C180.295 106.138 180.541 106.384 180.541 106.688V110.39C180.541 110.693 180.295 110.939 179.992 110.939Z" fill="#121212"/>
<path d="M218.018 73.9175H213.312C213.008 73.9175 212.762 73.6713 212.762 73.3679C212.762 73.0646 213.008 72.8184 213.312 72.8184H218.018C218.322 72.8184 218.568 73.0646 218.568 73.3679C218.568 73.6713 218.322 73.9175 218.018 73.9175ZM144.994 73.9175H141.582C141.279 73.9175 141.033 73.6713 141.033 73.3679C141.033 73.0646 141.279 72.8184 141.582 72.8184H144.996C145.3 72.8184 145.546 73.0646 145.546 73.3679C145.546 73.6713 145.298 73.9175 144.994 73.9175Z" fill="#121212"/>
<path d="M203.013 50.5808C202.875 50.5808 202.732 50.528 202.624 50.4203C202.409 50.2049 202.409 49.8575 202.624 49.6421L205.739 46.5117C205.952 46.2962 206.3 46.294 206.517 46.5095C206.733 46.7249 206.733 47.0722 206.517 47.2877L203.402 50.4181C203.294 50.528 203.154 50.5808 203.013 50.5808ZM153.199 100.536C153.061 100.536 152.918 100.483 152.81 100.375C152.594 100.162 152.594 99.8123 152.808 99.5968L155.921 96.4664C156.138 96.251 156.483 96.251 156.699 96.4642C156.914 96.6775 156.914 97.027 156.701 97.2424L153.588 100.373C153.48 100.483 153.34 100.536 153.199 100.536Z" fill="#121212"/>
<path d="M206.87 100.674C206.729 100.674 206.588 100.621 206.481 100.511L203.366 97.3829C203.15 97.1674 203.15 96.8201 203.366 96.6047C203.581 96.3914 203.929 96.3914 204.144 96.6069L207.259 99.7351C207.474 99.9505 207.474 100.298 207.259 100.513C207.151 100.621 207.008 100.674 206.87 100.674ZM156.453 49.9078C156.313 49.9078 156.172 49.8551 156.062 49.7452L152.949 46.6147C152.736 46.3993 152.736 46.052 152.952 45.8365C153.169 45.6233 153.514 45.6233 153.73 45.8387L156.843 48.9691C157.056 49.1846 157.056 49.5319 156.84 49.7474C156.735 49.8529 156.594 49.9078 156.453 49.9078Z" fill="#121212"/>
<path d="M201.282 74.3913H184.621C184.014 74.3913 183.522 73.8989 183.522 73.2922C183.522 72.6854 184.014 72.193 184.621 72.193H201.282C201.889 72.193 202.381 72.6854 202.381 73.2922C202.381 73.8989 201.889 74.3913 201.282 74.3913ZM179.991 69.8386C179.385 69.8386 178.892 69.3462 178.892 68.7394V44.6744C178.892 44.0676 179.385 43.5752 179.991 43.5752C180.598 43.5752 181.091 44.0676 181.091 44.6744V68.7394C181.091 69.3462 180.6 69.8386 179.991 69.8386Z" fill="#121212"/>
<path d="M179.994 69.666C179.507 69.666 179.026 69.7618 178.577 69.9478C178.128 70.1339 177.72 70.4065 177.376 70.7503C177.032 71.0941 176.759 71.5022 176.573 71.9513C176.387 72.4005 176.292 72.8818 176.292 73.368C176.292 73.8542 176.387 74.3355 176.573 74.7847C176.759 75.2338 177.032 75.6419 177.376 75.9857C177.72 76.3295 178.128 76.6021 178.577 76.7882C179.026 76.9742 179.507 77.07 179.994 77.07C180.48 77.07 180.961 76.9742 181.41 76.7882C181.859 76.6021 182.268 76.3295 182.611 75.9857C182.955 75.6419 183.228 75.2338 183.414 74.7847C183.6 74.3355 183.696 73.8542 183.696 73.368C183.696 72.8818 183.6 72.4005 183.414 71.9513C183.228 71.5022 182.955 71.0941 182.611 70.7503C182.268 70.4065 181.859 70.1339 181.41 69.9478C180.961 69.7618 180.48 69.666 179.994 69.666Z" fill="#3C7DD9"/>
<path d="M179.992 77.8936C177.497 77.8936 175.465 75.8624 175.465 73.3673C175.465 70.8722 177.497 68.8409 179.992 68.8409C182.489 68.8409 184.52 70.8722 184.52 73.3673C184.52 75.8624 182.489 77.8936 179.992 77.8936ZM179.992 70.4897C178.405 70.4897 177.114 71.7801 177.114 73.3673C177.114 74.9545 178.405 76.2449 179.992 76.2449C181.579 76.2449 182.872 74.9545 182.872 73.3673C182.872 71.7801 181.579 70.4897 179.992 70.4897Z" fill="#121212"/>
<path d="M270 41L290.417 1L282.735 33.2843H303.153L270 81L290.417 41H270Z" fill="#4D4D4D" stroke="#121212"/>
<path d="M304.558 61.475L328.651 37.8787L315.468 59.0255L330.002 63.9042L295 89.95L319.093 66.3537L304.558 61.475Z" fill="#4D4D4D" stroke="#121212"/>
<path d="M333.35 80.5943L357.108 79.3665L340.263 84.3932L345.67 93.7597L315 91.1886L338.758 89.9608L333.35 80.5943Z" fill="#4D4D4D" stroke="#121212"/>
<path d="M90.4811 41L70.0636 1L77.7454 33.2843H57.3279L90.4811 81L70.0636 41H90.4811Z" fill="#4D4D4D" stroke="#121212"/>
<path d="M55.9228 61.475L31.8302 37.8787L45.0129 59.0255L30.4783 63.9042L65.4807 89.95L41.3881 66.3537L55.9228 61.475Z" fill="#4D4D4D" stroke="#121212"/>
<path d="M27.1308 80.5943L3.37315 79.3665L20.2181 84.3932L14.8103 93.7597L45.4807 91.1886L21.7231 89.9608L27.1308 80.5943Z" fill="#4D4D4D" stroke="#121212"/>
<path d="M180.817 12.9921H178.825C176.945 12.9921 175.47 14.2165 175.47 15.7795V28.0264C175.47 28.5298 175.879 28.9387 176.383 28.9387H183.257C183.76 28.9387 184.169 28.5298 184.169 28.0264V15.7795C184.169 14.2165 182.696 12.9921 180.817 12.9921Z" fill="#4D4D4D"/>
<path d="M183.259 29.7634H176.385C175.426 29.7634 174.648 28.9852 174.648 28.0267V15.7798C174.648 13.7552 176.484 12.168 178.825 12.168H180.817C183.158 12.168 184.993 13.7552 184.993 15.7798V28.0289C184.996 28.9852 184.215 29.7634 183.259 29.7634ZM178.825 13.8167C177.405 13.8167 176.297 14.6785 176.297 15.7798V28.0267L183.259 28.1146L183.347 15.7798C183.347 14.6807 182.237 13.8167 180.819 13.8167H178.825Z" fill="#121212"/>
<path d="M184.783 22.1721C184.39 22.1721 184.01 21.961 183.814 21.5895C183.528 21.0531 183.733 20.3892 184.267 20.1034C187.241 18.5207 189.086 15.4914 189.086 12.2027C189.086 7.23885 184.929 3.19833 179.82 3.19833C174.711 3.19833 170.554 7.23665 170.554 12.2027C170.554 15.3946 172.319 18.3778 175.161 19.9869C175.689 20.2859 175.876 20.9564 175.577 21.484C175.273 22.0138 174.599 22.1941 174.078 21.8995C170.547 19.9012 168.353 16.186 168.353 12.2027C168.353 6.02537 173.497 1 179.817 1C186.138 1 191.282 6.02537 191.282 12.2027C191.282 16.3069 188.989 20.0793 185.298 22.0446C185.135 22.1281 184.959 22.1721 184.783 22.1721Z" fill="#121212"/>
<path d="M179.71 27.1232C154.251 27.1232 133.541 47.8336 133.541 73.2924C133.541 98.7512 154.253 119.462 179.71 119.462C205.166 119.462 225.877 98.749 225.877 73.2924C225.877 47.8358 205.166 27.1232 179.71 27.1232Z" fill="#4D4D4D"/>
<path d="M179.71 121C153.403 121 132 99.5973 132 73.2922C132 46.987 153.403 25.5841 179.71 25.5841C206.015 25.5841 227.416 46.9848 227.416 73.2922C227.416 99.5995 206.015 121 179.71 121ZM179.71 28.664C155.1 28.664 135.077 48.6841 135.077 73.2922C135.077 97.9002 155.097 117.923 179.71 117.923C204.318 117.923 224.338 97.9024 224.338 73.2922C224.338 48.6819 204.32 28.664 179.71 28.664Z" fill="#121212"/>
<path d="M217.874 70.3768C218.571 78.4358 216.742 86.7565 212.103 94.0747C200.815 111.886 177.159 117.019 159.269 105.539C141.379 94.0593 136.026 70.3174 147.314 52.5066C158.603 34.6957 182.259 29.5626 200.149 41.0423C206.508 45.1224 211.283 50.7523 214.291 57.1143" fill="#FDFCEE"/>
<path d="M179.992 112.496C172.562 112.496 165.259 110.364 158.823 106.233C140.579 94.5295 135.103 70.2292 146.615 52.0666C152.162 43.3151 160.797 37.2609 170.927 35.0208C181.169 32.7587 191.705 34.6493 200.593 40.3496C206.867 44.3769 211.862 50.053 215.034 56.7645C215.229 57.1755 215.054 57.668 214.64 57.8614C214.227 58.0549 213.737 57.8812 213.543 57.4679C210.501 51.0356 205.715 45.597 199.703 41.7367C191.186 36.2761 181.089 34.4602 171.281 36.63C161.582 38.7756 153.316 44.5703 148.005 52.9482C136.976 70.3479 142.227 93.6282 159.709 104.846C168.225 110.309 178.32 112.123 188.128 109.953C197.825 107.807 206.093 102.013 211.404 93.6348C215.81 86.6859 217.762 78.6686 217.047 70.449C217.008 69.9962 217.346 69.5961 217.799 69.5565C218.241 69.5059 218.652 69.8533 218.692 70.3061C219.435 78.8884 217.395 87.2596 212.794 94.5163C207.247 103.268 198.612 109.322 188.482 111.562C185.664 112.186 182.817 112.496 179.992 112.496Z" fill="#121212"/>
<path d="M216.527 64.1501C216.747 65.0515 216.936 65.9616 217.09 66.8761Z" fill="#FDFCEE"/>
<path d="M217.09 67.7008C216.694 67.7008 216.344 67.4172 216.276 67.0149C216.127 66.1202 215.942 65.2299 215.724 64.3483C215.617 63.9065 215.887 63.4602 216.329 63.3503C216.762 63.2404 217.215 63.513 217.325 63.9548C217.551 64.8759 217.743 65.8058 217.903 66.7401C217.978 67.1886 217.674 67.615 217.226 67.6898C217.18 67.6964 217.136 67.7008 217.09 67.7008Z" fill="#121212"/>
<path d="M179.992 39.5551C179.688 39.5551 179.442 39.3088 179.442 39.0055V35.3035C179.442 35.0001 179.688 34.7539 179.992 34.7539C180.295 34.7539 180.541 35.0001 180.541 35.3035V39.0055C180.541 39.3088 180.295 39.5551 179.992 39.5551ZM179.992 110.939C179.688 110.939 179.442 110.693 179.442 110.39V106.688C179.442 106.384 179.688 106.138 179.992 106.138C180.295 106.138 180.541 106.384 180.541 106.688V110.39C180.541 110.693 180.295 110.939 179.992 110.939Z" fill="#121212"/>
<path d="M218.018 73.9175H213.312C213.008 73.9175 212.762 73.6713 212.762 73.3679C212.762 73.0646 213.008 72.8184 213.312 72.8184H218.018C218.322 72.8184 218.568 73.0646 218.568 73.3679C218.568 73.6713 218.322 73.9175 218.018 73.9175ZM144.994 73.9175H141.582C141.279 73.9175 141.033 73.6713 141.033 73.3679C141.033 73.0646 141.279 72.8184 141.582 72.8184H144.996C145.3 72.8184 145.546 73.0646 145.546 73.3679C145.546 73.6713 145.298 73.9175 144.994 73.9175Z" fill="#121212"/>
<path d="M203.013 50.5808C202.875 50.5808 202.732 50.528 202.624 50.4203C202.409 50.2049 202.409 49.8575 202.624 49.6421L205.739 46.5117C205.952 46.2962 206.3 46.294 206.517 46.5095C206.733 46.7249 206.733 47.0722 206.517 47.2877L203.402 50.4181C203.294 50.528 203.154 50.5808 203.013 50.5808ZM153.199 100.536C153.061 100.536 152.918 100.483 152.81 100.375C152.594 100.162 152.594 99.8123 152.808 99.5968L155.921 96.4664C156.138 96.251 156.483 96.251 156.699 96.4642C156.914 96.6775 156.914 97.027 156.701 97.2424L153.588 100.373C153.48 100.483 153.34 100.536 153.199 100.536Z" fill="#121212"/>
<path d="M206.87 100.674C206.729 100.674 206.588 100.621 206.481 100.511L203.366 97.3829C203.15 97.1674 203.15 96.8201 203.366 96.6047C203.581 96.3914 203.929 96.3914 204.144 96.6069L207.259 99.7351C207.474 99.9505 207.474 100.298 207.259 100.513C207.151 100.621 207.008 100.674 206.87 100.674ZM156.453 49.9078C156.313 49.9078 156.172 49.8551 156.062 49.7452L152.949 46.6147C152.736 46.3993 152.736 46.052 152.952 45.8365C153.169 45.6233 153.514 45.6233 153.73 45.8387L156.843 48.9691C157.056 49.1846 157.056 49.5319 156.84 49.7474C156.735 49.8529 156.594 49.9078 156.453 49.9078Z" fill="#121212"/>
<path d="M201.282 74.3913H184.621C184.014 74.3913 183.522 73.8989 183.522 73.2922C183.522 72.6854 184.014 72.193 184.621 72.193H201.282C201.889 72.193 202.381 72.6854 202.381 73.2922C202.381 73.8989 201.889 74.3913 201.282 74.3913ZM179.991 69.8386C179.385 69.8386 178.892 69.3462 178.892 68.7394V44.6744C178.892 44.0676 179.385 43.5752 179.991 43.5752C180.598 43.5752 181.091 44.0676 181.091 44.6744V68.7394C181.091 69.3462 180.6 69.8386 179.991 69.8386Z" fill="#121212"/>
<path d="M179.994 69.666C179.507 69.666 179.026 69.7618 178.577 69.9478C178.128 70.1339 177.72 70.4065 177.376 70.7503C177.032 71.0941 176.759 71.5022 176.573 71.9513C176.387 72.4005 176.292 72.8818 176.292 73.368C176.292 73.8542 176.387 74.3355 176.573 74.7847C176.759 75.2338 177.032 75.6419 177.376 75.9857C177.72 76.3295 178.128 76.6021 178.577 76.7882C179.026 76.9742 179.507 77.07 179.994 77.07C180.48 77.07 180.961 76.9742 181.41 76.7882C181.859 76.6021 182.268 76.3295 182.611 75.9857C182.955 75.6419 183.228 75.2338 183.414 74.7847C183.6 74.3355 183.696 73.8542 183.696 73.368C183.696 72.8818 183.6 72.4005 183.414 71.9513C183.228 71.5022 182.955 71.0941 182.611 70.7503C182.268 70.4065 181.859 70.1339 181.41 69.9478C180.961 69.7618 180.48 69.666 179.994 69.666Z" fill="#3C7DD9"/>
<path d="M179.992 77.8936C177.497 77.8936 175.465 75.8624 175.465 73.3673C175.465 70.8722 177.497 68.8409 179.992 68.8409C182.489 68.8409 184.52 70.8722 184.52 73.3673C184.52 75.8624 182.489 77.8936 179.992 77.8936ZM179.992 70.4897C178.405 70.4897 177.114 71.7801 177.114 73.3673C177.114 74.9545 178.405 76.2449 179.992 76.2449C181.579 76.2449 182.872 74.9545 182.872 73.3673C182.872 71.7801 181.579 70.4897 179.992 70.4897Z" fill="#121212"/>
<path d="M270 41L290.417 1L282.735 33.2843H303.153L270 81L290.417 41H270Z" fill="#4D4D4D" stroke="#121212"/>
<path d="M304.558 61.475L328.651 37.8787L315.468 59.0255L330.002 63.9042L295 89.95L319.093 66.3537L304.558 61.475Z" fill="#4D4D4D" stroke="#121212"/>
<path d="M333.35 80.5943L357.108 79.3665L340.263 84.3932L345.67 93.7597L315 91.1886L338.758 89.9608L333.35 80.5943Z" fill="#4D4D4D" stroke="#121212"/>
<path d="M90.4811 41L70.0636 1L77.7454 33.2843H57.3279L90.4811 81L70.0636 41H90.4811Z" fill="#4D4D4D" stroke="#121212"/>
<path d="M55.9228 61.475L31.8302 37.8787L45.0129 59.0255L30.4783 63.9042L65.4807 89.95L41.3881 66.3537L55.9228 61.475Z" fill="#4D4D4D" stroke="#121212"/>
<path d="M27.1308 80.5943L3.37315 79.3665L20.2181 84.3932L14.8103 93.7597L45.4807 91.1886L21.7231 89.9608L27.1308 80.5943Z" fill="#4D4D4D" stroke="#121212"/>
</svg>
