<svg width="65" height="64" viewBox="0 0 65 64" fill="none" xmlns="http://www.w3.org/2000/svg">
<path d="M32.8878 50.8954C31.5512 50.8954 30.3879 50.4025 29.4294 49.4303C28.4864 48.4727 28.0082 47.313 28.0082 45.9831V28.9758C28.0082 27.6529 28.4864 26.4968 29.4294 25.5397C30.3905 24.5604 31.5542 24.063 32.8878 24.063C34.2309 24.063 35.4016 24.5599 36.3678 25.5391C37.3113 26.4972 37.7896 27.6534 37.7896 28.9758V45.983C37.7896 47.3135 37.3113 48.4732 36.3673 49.4302C35.4093 50.4025 34.2385 50.8954 32.8878 50.8954ZM32.8878 26.1273C32.1081 26.1273 31.4766 26.4005 30.9016 26.9866C30.3431 27.5536 30.0725 28.2037 30.0725 28.9758V45.983C30.0725 46.7733 30.3356 47.4082 30.9 47.9813C31.4716 48.5609 32.103 48.8311 32.8878 48.8311C33.676 48.8311 34.3338 48.5529 34.8972 47.9808C35.4621 47.4083 35.7253 46.7733 35.7253 45.983V28.9758C35.7253 28.2037 35.4546 27.5536 34.8972 26.9881C34.3181 26.401 33.6795 26.1273 32.8878 26.1273ZM32.8878 20.769C31.5568 20.769 30.3916 20.2927 29.4238 19.3528C28.4557 18.3569 27.9753 17.1917 27.9753 15.8677C27.9753 14.5301 28.4572 13.3629 29.4077 12.3982C30.3825 11.4371 31.5496 10.9548 32.8878 10.9548C34.2117 10.9548 35.3775 11.4351 36.3521 12.3832C37.3128 13.3709 37.7896 14.5367 37.7896 15.8678C37.7896 17.1853 37.3148 18.3489 36.3778 19.3267C35.3684 20.2941 34.2047 20.769 32.8878 20.769ZM32.8878 13.019C32.1006 13.019 31.4398 13.2932 30.8677 13.8577C30.3138 14.4196 30.0397 15.0809 30.0397 15.8676C30.0397 16.6462 30.3159 17.309 30.8833 17.8931C31.4387 18.4323 32.1015 18.7045 32.8877 18.7045C33.6653 18.7045 34.3295 18.4304 34.9187 17.8669C35.451 17.3094 35.7251 16.6452 35.7251 15.8676C35.7251 15.0813 35.4525 14.4191 34.892 13.8421C34.3292 13.2953 33.6664 13.019 32.8878 13.019Z" fill="white"/>
<path d="M32.8807 64C27.4502 64 22.0258 62.604 17.1094 59.824L2.62022 61.1097C2.23013 61.1399 1.86419 60.9605 1.65763 60.6349C1.45097 60.3088 1.44292 59.8951 1.6375 59.5615L6.86281 50.6041C6.00851 49.4087 5.23287 48.1477 4.55251 46.8474C-3.64231 31.2283 2.39849 11.8529 18.0191 3.65762C33.6382 -4.53719 53.0166 1.50412 61.2119 17.1247C69.4063 32.7479 63.3639 52.1241 47.7418 60.3185C43.0582 62.7753 37.9665 64 32.8807 64ZM17.3408 57.7349C17.5217 57.7349 17.7001 57.7828 17.8578 57.8735C26.8197 63.0611 37.6324 63.2915 46.7832 58.4899C61.3969 50.8247 67.0496 32.6982 59.3834 18.0831C51.7178 3.4714 33.5914 -2.18137 18.9776 5.48586C11.9001 9.19931 6.69146 15.4473 4.31209 23.0787C1.93273 30.7101 2.6676 38.8112 6.38105 45.8892C7.11737 47.2958 7.97218 48.6525 8.92166 49.9221C9.17012 50.2542 9.19531 50.7028 8.98669 51.0606L4.42657 58.877L17.2495 57.739C17.2798 57.7364 17.3105 57.7349 17.3408 57.7349Z" fill="white"/>
</svg>
